<svg width="40" height="41" viewBox="0 0 40 41" fill="none" xmlns="http://www.w3.org/2000/svg">
<path d="M22.9289 12.1565L27.0234 10.1231C27.5227 9.87107 27.6559 9.2157 27.2731 8.81239C25.7917 7.16555 24.2937 5.78758 23.0953 4.7457C22.546 4.27518 21.7305 4.66168 21.7305 5.38427V11.4003C21.7305 12.0221 22.3796 12.4254 22.9289 12.1565Z" fill="#FCCE05"/>
<path d="M21.7305 32.8761V35.6489C21.7305 36.153 22.1799 36.5731 22.6792 36.4891C27.2231 35.7329 31.018 32.6577 32.8156 28.5237C33.1319 27.818 32.3662 27.1122 31.6672 27.4483L22.1965 32.1367C21.9136 32.2711 21.7305 32.5568 21.7305 32.8761Z" fill="#FCCE05"/>
<path d="M19.2337 5.3505C19.2337 4.62791 18.4182 4.24141 17.8689 4.69513C13.9408 8.02242 6.96683 15.0299 7.00012 23.0624C7.00012 29.8179 11.8936 35.4138 18.285 36.4892C18.7844 36.5733 19.2337 36.1532 19.2337 35.649V5.3505Z" fill="#FCCE05"/>
<path d="M22.879 20.6595L31.6839 16.9289C32.1333 16.7272 32.3496 16.2063 32.1333 15.7694C31.5174 14.5426 30.8017 13.3495 30.0194 12.2404C29.7864 11.9043 29.3536 11.8035 28.9875 11.9716L22.1799 15.3156C21.897 15.4501 21.7139 15.7526 21.7139 16.0718V19.8865C21.7305 20.4746 22.3297 20.8947 22.879 20.6595Z" fill="#FCCE05"/>
<path d="M33.5147 23.7515C33.781 23.617 33.9475 23.3649 33.9475 23.0793C33.9475 22.0038 33.8143 20.9451 33.5813 19.9032C33.4648 19.3991 32.9155 19.1302 32.4495 19.3319L22.2298 23.7346C21.9302 23.8691 21.7305 24.1716 21.7305 24.5077V28.2046C21.7305 28.8264 22.3796 29.2297 22.9289 28.9608L32.7491 24.138L33.5147 23.7515Z" fill="#FCCE05"/>
</svg>
